<svg id="svg" version="1.1" width="500" height="500" xmlns="http://www.w3.org/2000/svg" xmlns:xlink="http://www.w3.org/1999/xlink" style="display: block;"><g id="svgg"><path id="path0" d="M72.800 0.577 C 70.710 0.969,68.000 3.334,68.000 4.767 C 68.000 5.225,67.614 5.600,67.143 5.600 C 63.488 5.600,63.614 2.735,63.389 90.943 L 63.178 173.600 37.564 173.600 C 15.534 173.600,11.885 173.768,11.489 174.800 C 11.205 175.540,9.989 176.000,8.314 176.000 C 6.435 176.000,5.600 176.369,5.600 177.200 C 5.600 177.860,5.225 178.400,4.767 178.400 C 1.854 178.400,0.473 181.619,0.142 189.182 C -0.229 197.671,0.276 200.800,2.015 200.800 C 2.667 200.800,3.200 201.340,3.200 202.000 C 3.200 202.660,3.740 203.200,4.400 203.200 C 5.060 203.200,5.600 203.586,5.600 204.057 C 5.600 205.165,7.635 207.200,8.743 207.200 C 9.214 207.200,9.600 207.740,9.600 208.400 C 9.600 209.060,9.960 209.600,10.400 209.600 C 10.840 209.600,11.200 210.240,11.200 211.022 C 11.200 212.486,13.804 215.200,15.209 215.200 C 15.644 215.200,16.000 215.596,16.000 216.079 C 16.000 216.563,17.800 218.721,20.000 220.875 C 24.494 225.276,24.901 226.400,22.000 226.400 C 20.400 226.400,20.000 226.800,20.000 228.400 C 20.000 229.644,19.547 230.400,18.800 230.400 C 17.933 230.400,17.600 231.289,17.600 233.600 C 17.600 235.360,17.240 236.800,16.800 236.800 C 16.280 236.800,16.000 248.000,16.000 268.800 C 16.000 289.600,16.280 300.800,16.800 300.800 C 17.267 300.800,17.600 303.467,17.600 307.200 C 17.600 310.933,17.267 313.600,16.800 313.600 C 16.298 313.600,16.000 318.667,16.000 327.200 C 16.000 335.733,16.298 340.800,16.800 340.800 C 17.240 340.800,17.600 342.010,17.600 343.488 C 17.600 345.421,18.162 346.598,19.600 347.678 C 20.700 348.504,21.600 349.634,21.600 350.190 C 21.600 350.745,22.140 351.200,22.800 351.200 C 23.460 351.200,24.000 351.560,24.000 352.000 C 24.000 352.526,45.067 352.800,85.600 352.800 C 128.648 352.800,147.200 353.057,147.200 353.652 C 147.200 354.763,155.637 363.200,156.748 363.200 C 157.217 363.200,157.600 363.740,157.600 364.400 C 157.600 365.060,157.960 365.600,158.400 365.600 C 158.840 365.600,159.200 366.140,159.200 366.800 C 159.200 367.460,159.584 368.000,160.054 368.000 C 160.523 368.000,162.096 369.260,163.548 370.800 C 165.001 372.340,166.596 373.600,167.094 373.600 C 167.593 373.600,168.000 374.140,168.000 374.800 C 168.000 375.460,168.360 376.000,168.800 376.000 C 169.240 376.000,169.600 376.540,169.600 377.200 C 169.600 377.860,169.972 378.400,170.427 378.400 C 171.855 378.400,176.000 383.181,176.000 384.828 C 176.000 385.692,176.332 386.400,176.738 386.400 C 177.699 386.400,182.400 391.101,182.400 392.062 C 182.400 392.468,182.786 392.800,183.257 392.800 C 184.365 392.800,186.400 394.835,186.400 395.943 C 186.400 396.414,187.300 396.800,188.400 396.800 C 189.561 396.800,190.400 397.260,190.400 397.897 C 190.400 399.405,197.183 400.217,204.090 399.536 C 207.960 399.155,209.600 398.667,209.600 397.897 C 209.600 397.293,209.960 396.800,210.400 396.800 C 210.840 396.800,211.200 396.260,211.200 395.600 C 211.200 394.940,211.740 394.400,212.400 394.400 C 213.060 394.400,213.600 394.040,213.600 393.600 C 213.600 393.160,214.140 392.800,214.800 392.800 C 215.460 392.800,216.000 392.414,216.000 391.943 C 216.000 390.835,218.035 388.800,219.143 388.800 C 219.614 388.800,220.000 388.260,220.000 387.600 C 220.000 386.940,220.360 386.400,220.800 386.400 C 221.240 386.400,221.600 385.860,221.600 385.200 C 221.600 384.540,222.140 384.000,222.800 384.000 C 223.460 384.000,224.000 383.640,224.000 383.200 C 224.000 382.760,224.540 382.400,225.200 382.400 C 225.860 382.400,226.400 382.014,226.400 381.543 C 226.400 380.435,228.435 378.400,229.543 378.400 C 230.014 378.400,230.400 377.860,230.400 377.200 C 230.400 376.540,230.760 376.000,231.200 376.000 C 231.640 376.000,232.000 375.460,232.000 374.800 C 232.000 374.140,232.383 373.600,232.852 373.600 C 233.321 373.600,235.661 371.643,238.052 369.252 C 240.443 366.861,242.400 364.521,242.400 364.052 C 242.400 363.583,242.752 363.200,243.183 363.200 C 244.203 363.200,252.800 354.603,252.800 353.583 C 252.800 353.079,274.361 352.800,313.200 352.800 C 352.933 352.800,373.600 352.526,373.600 352.000 C 373.600 351.560,374.493 351.200,375.585 351.200 C 377.035 351.200,377.705 350.661,378.071 349.200 C 378.348 348.100,378.894 347.200,379.287 347.200 C 379.679 347.200,380.000 346.120,380.000 344.800 C 380.000 343.200,380.400 342.400,381.200 342.400 C 383.021 342.400,383.021 232.988,381.200 232.289 C 380.540 232.036,380.000 231.122,380.000 230.257 C 380.000 228.558,378.242 226.400,376.857 226.400 C 375.394 226.400,375.910 224.807,378.000 222.870 C 379.100 221.851,380.000 220.248,380.000 219.308 C 380.000 218.369,380.386 217.600,380.857 217.600 C 381.965 217.600,384.000 215.565,384.000 214.457 C 384.000 213.986,384.540 213.600,385.200 213.600 C 385.860 213.600,386.400 213.060,386.400 212.400 C 386.400 211.740,386.786 211.200,387.257 211.200 C 388.365 211.200,390.400 209.165,390.400 208.057 C 390.400 207.586,390.786 207.200,391.257 207.200 C 392.365 207.200,394.400 205.165,394.400 204.057 C 394.400 203.586,394.940 203.200,395.600 203.200 C 396.260 203.200,396.800 202.660,396.800 202.000 C 396.800 201.340,397.314 200.800,397.942 200.800 C 400.761 200.800,400.424 182.498,397.555 179.800 C 396.737 179.030,395.692 178.400,395.233 178.400 C 394.775 178.400,394.400 177.860,394.400 177.200 C 394.400 176.394,393.594 176.000,391.943 176.000 C 390.591 176.000,388.946 175.460,388.286 174.800 C 387.270 173.784,383.225 173.600,361.943 173.600 L 336.800 173.600 336.800 91.975 C 336.800 20.157,336.656 10.294,335.600 9.889 C 334.940 9.636,334.400 8.567,334.400 7.514 C 334.400 6.346,333.932 5.600,333.200 5.600 C 332.540 5.600,332.000 5.225,332.000 4.767 C 332.000 4.308,331.259 3.138,330.354 2.167 L 328.709 0.400 201.754 0.301 C 131.929 0.246,73.900 0.370,72.800 0.577 M319.253 14.428 C 320.768 15.239,320.800 17.058,320.800 102.019 L 320.800 188.781 352.200 188.991 C 383.442 189.199,383.601 189.208,383.841 190.885 C 384.079 192.558,377.815 199.509,358.951 218.502 L 351.902 225.600 337.351 225.588 C 318.781 225.572,320.453 227.142,320.147 209.437 C 319.750 186.447,319.682 186.400,286.682 186.400 L 264.065 186.400 260.431 188.595 C 258.145 189.976,256.338 191.830,255.560 193.595 C 254.879 195.138,253.980 197.025,253.561 197.789 C 253.143 198.553,252.800 205.123,252.800 212.389 L 252.800 225.600 199.143 225.600 C 152.514 225.600,145.329 225.757,144.286 226.800 C 142.740 228.346,138.883 228.346,137.600 226.800 C 136.737 225.760,130.674 225.600,92.016 225.600 L 47.427 225.600 36.462 214.200 C 30.431 207.930,23.425 200.640,20.893 198.000 C 11.779 188.496,10.892 188.800,47.760 188.800 L 78.400 188.800 78.412 102.600 C 78.419 55.190,78.689 16.004,79.012 15.520 C 79.336 15.036,80.140 14.434,80.800 14.183 C 83.096 13.309,317.612 13.550,319.253 14.428 M307.535 199.686 C 308.637 200.109,308.800 202.523,308.800 218.486 L 308.800 236.800 337.102 236.800 C 360.006 236.800,365.577 237.008,366.308 237.889 C 366.964 238.679,367.156 252.585,367.006 288.489 L 366.800 338.000 316.851 338.206 C 277.421 338.369,266.767 338.200,266.263 337.406 C 265.527 336.246,265.353 202.374,266.086 200.465 C 266.584 199.167,304.333 198.457,307.535 199.686 M132.640 237.760 C 134.062 239.182,133.966 258.701,132.531 259.892 C 131.804 260.495,122.518 260.846,103.531 260.989 L 75.600 261.200 75.370 268.600 L 75.140 276.000 102.318 276.000 C 118.127 276.000,130.358 276.328,131.558 276.784 L 133.619 277.568 133.410 307.784 L 133.200 338.000 83.000 338.206 L 32.800 338.412 32.800 327.206 L 32.800 316.000 62.000 316.000 L 91.200 316.000 91.200 308.400 L 91.200 300.800 62.960 300.800 C 42.062 300.800,34.470 300.550,33.760 299.840 C 32.716 298.796,32.304 238.363,33.333 237.333 C 34.370 236.296,131.594 236.714,132.640 237.760 M249.143 238.057 C 251.066 239.980,251.058 337.177,249.135 337.914 C 248.439 338.181,225.754 338.400,198.725 338.400 L 149.581 338.400 149.791 307.400 L 150.000 276.400 178.600 276.190 L 207.200 275.980 207.200 268.390 L 207.200 260.800 178.400 260.800 L 149.600 260.800 149.600 249.333 C 149.600 243.027,149.840 237.627,150.133 237.333 C 151.427 236.040,247.831 236.745,249.143 238.057 M309.333 261.333 C 309.040 261.627,308.800 274.047,308.800 288.933 L 308.800 316.000 316.400 316.000 L 324.000 316.000 324.000 288.400 L 324.000 260.800 316.933 260.800 C 313.047 260.800,309.627 261.040,309.333 261.333 M192.000 308.400 L 192.000 316.000 199.600 316.000 L 207.200 316.000 207.200 308.400 L 207.200 300.800 199.600 300.800 L 192.000 300.800 192.000 308.400 M230.000 352.872 C 230.000 353.961,218.945 366.200,205.404 380.102 C 199.937 385.715,199.520 385.570,188.800 374.322 C 183.740 369.014,177.156 362.142,174.170 359.053 C 169.789 354.522,168.921 353.218,169.676 352.309 C 171.173 350.504,230.000 351.054,230.000 352.872 " stroke="none" fill="#000000" fill-rule="evenodd"></path><path id="path1" d="M140.600 14.200 C 173.270 14.316,226.730 14.316,259.400 14.200 C 292.070 14.084,265.340 13.990,200.000 13.990 C 134.660 13.990,107.930 14.084,140.600 14.200 M78.886 15.665 C 78.619 16.361,78.400 55.601,78.400 102.865 L 78.400 188.800 47.698 188.800 C 19.410 188.800,16.910 188.910,15.898 190.200 C 14.927 191.438,14.947 191.485,16.070 190.610 C 17.019 189.870,25.134 189.566,48.070 189.410 L 78.800 189.200 79.004 102.878 C 79.150 40.706,79.457 16.254,80.102 15.478 C 80.662 14.802,80.693 14.400,80.184 14.400 C 79.737 14.400,79.153 14.969,78.886 15.665 M320.000 101.840 L 320.400 189.200 320.604 102.444 C 320.716 54.728,320.536 15.416,320.204 15.083 C 319.872 14.751,319.780 53.792,320.000 101.840 M277.048 186.198 C 283.124 186.334,292.844 186.334,298.648 186.198 C 304.452 186.061,299.480 185.950,287.600 185.950 C 275.720 185.951,270.972 186.062,277.048 186.198 M259.600 188.379 C 257.840 189.463,256.649 190.361,256.954 190.375 C 257.648 190.406,263.200 187.158,263.200 186.721 C 263.200 186.200,262.953 186.314,259.600 188.379 M313.667 188.200 C 313.850 188.310,315.080 189.300,316.400 190.400 L 318.800 192.400 316.861 190.200 C 315.794 188.990,314.564 188.000,314.127 188.000 C 313.691 188.000,313.483 188.090,313.667 188.200 M352.146 189.395 L 383.091 189.619 383.477 191.409 C 383.813 192.971,383.845 192.944,383.731 191.200 L 383.600 189.200 352.400 189.186 L 321.200 189.171 352.146 189.395 M320.327 209.200 C 320.326 216.680,320.447 219.848,320.595 216.239 C 320.742 212.631,320.743 206.511,320.596 202.639 C 320.449 198.768,320.328 201.720,320.327 209.200 M306.200 199.730 C 306.959 200.036,307.200 204.531,307.200 218.381 C 307.200 234.283,307.363 236.691,308.465 237.114 C 309.161 237.381,322.049 237.600,337.105 237.600 C 357.330 237.600,364.731 237.851,365.440 238.560 C 366.704 239.824,366.841 337.248,365.580 337.873 C 365.129 338.097,365.219 338.187,365.780 338.073 C 367.179 337.790,367.696 239.562,366.308 237.889 C 365.577 237.008,360.006 236.800,337.102 236.800 L 308.800 236.800 308.800 218.486 C 308.800 199.740,308.669 198.916,305.735 199.263 C 305.441 199.298,305.650 199.508,306.200 199.730 M265.982 268.800 C 265.982 306.420,266.080 321.810,266.200 303.000 C 266.319 284.190,266.319 253.410,266.200 234.600 C 266.080 215.790,265.982 231.180,265.982 268.800 M370.357 206.200 L 367.600 209.200 370.600 206.443 C 372.250 204.927,373.600 203.577,373.600 203.443 C 373.600 202.832,372.923 203.408,370.357 206.200 M34.400 211.915 C 34.400 212.201,37.381 215.401,41.024 219.025 L 47.648 225.614 89.624 225.400 L 131.600 225.185 89.542 224.993 L 47.484 224.800 40.942 218.098 C 37.344 214.412,34.400 211.629,34.400 211.915 M320.800 223.816 C 320.800 225.558,351.222 226.702,352.278 225.000 C 352.482 224.670,345.989 224.506,337.849 224.635 C 327.441 224.800,322.714 224.593,321.924 223.937 C 321.242 223.371,320.800 223.324,320.800 223.816 M175.000 225.400 C 188.750 225.522,211.250 225.522,225.000 225.400 C 238.750 225.277,227.500 225.176,200.000 225.176 C 172.500 225.176,161.250 225.277,175.000 225.400 M33.167 237.653 C 32.877 238.122,32.856 238.722,33.120 238.987 C 33.384 239.251,33.600 239.047,33.600 238.533 C 33.600 236.542,130.969 237.274,132.039 239.273 C 133.430 241.872,132.736 259.049,131.200 260.018 C 130.540 260.435,130.378 260.781,130.840 260.788 C 133.097 260.821,133.600 258.638,133.600 248.800 C 133.600 242.027,133.285 238.405,132.640 237.760 C 131.346 236.466,33.965 236.362,33.167 237.653 M149.967 237.653 C 149.677 238.122,149.656 238.722,149.920 238.987 C 150.184 239.251,150.400 239.047,150.400 238.533 C 150.400 237.832,162.557 237.600,199.220 237.600 L 248.040 237.600 248.820 239.652 C 250.068 242.936,249.859 336.219,248.600 337.487 C 247.798 338.295,247.877 338.389,249.000 337.962 C 251.043 337.184,251.182 240.096,249.143 238.057 C 247.583 236.497,150.925 236.104,149.967 237.653 M74.571 268.600 L 74.800 276.400 102.600 276.416 L 130.400 276.432 102.746 276.205 L 75.091 275.979 75.345 268.388 C 75.485 264.213,75.317 260.797,74.971 260.798 C 74.625 260.799,74.445 264.310,74.571 268.600 M207.200 268.400 L 207.200 276.000 178.847 276.000 C 163.253 276.000,150.327 276.270,150.123 276.600 C 149.919 276.930,162.858 277.101,178.876 276.981 L 208.000 276.761 208.000 268.781 C 208.000 264.391,207.820 260.800,207.600 260.800 C 207.380 260.800,207.200 264.220,207.200 268.400 M307.733 261.333 C 306.856 262.211,307.098 316.000,307.980 316.000 C 308.467 316.000,308.842 305.636,308.980 288.400 C 309.101 273.219,308.990 260.799,308.733 260.800 C 308.477 260.800,308.027 261.040,307.733 261.333 M324.360 288.400 C 324.360 303.800,324.468 309.987,324.599 302.148 C 324.730 294.310,324.730 281.710,324.598 274.148 C 324.467 266.587,324.360 273.000,324.360 288.400 M131.994 278.783 C 133.248 282.083,133.070 336.194,131.800 337.540 C 130.993 338.395,131.032 338.529,132.000 338.233 C 133.643 337.731,133.833 277.544,132.194 276.998 C 131.424 276.741,131.377 277.160,131.994 278.783 M32.863 298.040 C 32.669 300.616,34.678 300.800,63.007 300.800 C 81.662 300.800,91.126 300.528,90.800 300.000 C 90.485 299.491,80.014 299.200,62.019 299.200 C 40.139 299.200,33.642 298.974,33.330 298.200 C 33.108 297.650,32.898 297.578,32.863 298.040 M191.554 300.231 C 191.324 300.830,191.256 304.713,191.402 308.860 L 191.668 316.400 191.834 308.600 L 192.000 300.800 199.571 300.800 L 207.142 300.800 207.419 308.600 L 207.695 316.400 207.648 308.000 L 207.600 299.600 199.786 299.371 C 193.770 299.194,191.876 299.392,191.554 300.231 M225.573 358.200 L 221.200 362.800 225.800 358.427 C 230.074 354.365,230.766 353.600,230.173 353.600 C 230.048 353.600,227.978 355.670,225.573 358.200 M212.370 372.200 L 208.400 376.400 212.600 372.430 C 214.910 370.247,216.800 368.357,216.800 368.230 C 216.800 367.633,216.059 368.297,212.370 372.200 " stroke="none" fill="#272727" fill-rule="evenodd"></path><path id="path2" d="M278.645 199.798 C 283.840 199.937,292.120 199.937,297.045 199.797 C 301.970 199.657,297.720 199.542,287.600 199.543 C 277.480 199.544,273.450 199.658,278.645 199.798 M308.275 237.788 C 308.784 238.111,321.692 238.381,336.960 238.388 C 362.547 238.399,364.784 238.510,365.536 239.800 C 365.984 240.570,366.362 240.794,366.376 240.298 C 366.440 237.898,363.864 237.656,335.829 237.430 C 320.165 237.303,307.766 237.464,308.275 237.788 M82.186 238.200 L 131.173 238.412 131.588 240.206 C 131.816 241.193,132.107 245.600,132.234 250.000 L 132.465 258.000 132.633 249.347 C 132.889 236.109,139.260 237.568,82.172 237.794 L 33.200 237.987 82.186 238.200 M198.326 238.197 C 235.379 238.362,246.932 238.644,247.856 239.406 C 248.842 240.220,248.988 240.183,248.664 239.200 C 248.317 238.151,242.092 237.999,199.133 237.991 L 150.000 237.981 198.326 238.197 M33.162 268.400 C 33.162 284.680,33.269 291.226,33.399 282.948 C 33.529 274.669,33.529 261.349,33.399 253.348 C 33.268 245.346,33.162 252.120,33.162 268.400 M248.797 288.800 L 248.400 337.200 199.076 337.200 C 171.948 337.200,149.920 337.470,150.124 337.800 C 150.863 338.997,247.708 338.516,248.708 337.310 C 249.364 336.521,249.555 323.036,249.403 288.310 L 249.193 240.400 248.797 288.800 M149.892 258.665 C 150.172 259.471,150.400 260.281,150.400 260.465 C 150.400 260.649,163.450 260.715,179.400 260.611 L 208.400 260.421 180.000 260.207 C 154.093 260.011,151.503 259.870,150.492 258.596 C 149.448 257.280,149.414 257.284,149.892 258.665 M130.717 259.203 C 130.254 259.666,118.677 260.064,101.971 260.189 L 74.000 260.400 73.772 268.600 C 73.647 273.110,73.647 276.877,73.772 276.970 C 74.439 277.468,131.829 277.907,131.332 277.411 C 131.007 277.086,118.154 276.726,102.771 276.611 L 74.800 276.400 74.571 268.600 L 74.342 260.800 102.171 260.788 C 127.075 260.777,133.431 260.364,131.923 258.857 C 131.687 258.620,131.144 258.776,130.717 259.203 M307.721 260.600 C 307.515 260.930,310.104 261.102,313.474 260.983 C 324.222 260.602,325.454 260.273,316.647 260.134 C 311.943 260.061,307.926 260.270,307.721 260.600 M149.876 278.035 C 149.616 278.713,149.627 279.493,149.901 279.768 C 150.176 280.042,150.400 279.671,150.400 278.943 C 150.400 277.741,153.016 277.600,179.000 277.400 L 207.600 277.179 178.975 276.990 C 153.798 276.823,150.293 276.949,149.876 278.035 M131.995 308.400 L 131.600 337.200 82.600 337.406 L 33.600 337.612 33.600 327.216 L 33.600 316.820 62.600 316.595 L 91.600 316.369 62.400 316.385 L 33.200 316.400 33.200 327.200 L 33.200 338.000 82.097 338.206 C 122.807 338.378,131.147 338.228,131.907 337.312 C 132.563 336.521,132.760 328.228,132.605 307.906 L 132.389 279.600 131.995 308.400 M43.200 298.971 C 68.424 299.532,91.201 299.546,91.201 299.000 C 91.200 298.670,78.150 298.478,62.200 298.574 C 46.250 298.669,37.700 298.848,43.200 298.971 M191.371 299.078 C 190.613 299.558,190.402 301.936,190.571 308.065 L 190.800 316.400 199.200 316.441 L 207.600 316.481 199.372 316.213 L 191.145 315.945 191.372 307.773 L 191.600 299.600 199.725 299.600 C 204.194 299.600,207.683 299.330,207.478 299.000 C 206.974 298.188,192.664 298.257,191.371 299.078 M312.229 316.592 C 314.775 316.751,318.735 316.750,321.029 316.589 C 323.323 316.428,321.240 316.297,316.400 316.299 C 311.560 316.301,309.683 316.433,312.229 316.592 M292.258 338.200 C 305.819 338.323,327.779 338.323,341.058 338.199 C 354.336 338.076,343.240 337.976,316.400 337.976 C 289.560 337.976,278.696 338.077,292.258 338.200 " stroke="none" fill="#4f4f4f" fill-rule="evenodd"></path><path id="path3" d="M266.768 201.000 C 265.292 204.869,266.876 337.186,268.400 337.343 C 269.644 337.471,269.688 337.416,268.600 337.095 C 266.426 336.454,266.426 201.120,268.600 200.551 C 269.912 200.209,269.910 200.180,268.575 200.093 C 267.791 200.042,266.978 200.450,266.768 201.000 M306.400 219.475 L 306.800 238.800 335.600 239.200 L 364.400 239.600 364.400 288.600 C 364.400 320.911,364.672 337.509,365.200 337.333 C 366.335 336.955,366.703 242.062,365.578 239.959 C 364.776 238.460,363.685 238.400,337.237 238.400 C 322.109 238.400,309.161 238.181,308.465 237.914 C 307.363 237.491,307.200 235.081,307.200 219.162 C 307.200 209.115,306.930 200.727,306.600 200.522 C 306.270 200.318,306.180 208.847,306.400 219.475 M33.600 239.000 C 33.600 239.330,55.470 239.600,82.200 239.600 L 130.800 239.600 130.800 249.200 L 130.800 258.800 102.213 259.010 L 73.625 259.220 73.177 261.010 C 72.223 264.823,73.136 277.053,74.400 277.396 C 75.320 277.646,75.359 277.552,74.569 276.995 C 73.819 276.465,73.601 274.115,73.769 268.334 L 74.000 260.400 101.931 260.189 C 120.918 260.046,130.204 259.695,130.931 259.092 C 132.044 258.167,132.521 242.289,131.514 239.665 C 130.992 238.305,33.600 237.643,33.600 239.000 M198.800 239.191 L 247.600 239.600 247.600 288.524 C 247.600 315.432,247.870 337.280,248.200 337.076 C 249.282 336.408,248.929 240.449,247.840 239.360 C 247.110 238.630,235.264 238.446,198.440 238.591 L 150.000 238.781 198.800 239.191 M149.899 249.200 C 149.901 254.040,150.033 255.917,150.192 253.371 C 150.351 250.825,150.350 246.865,150.189 244.571 C 150.028 242.277,149.897 244.360,149.899 249.200 M150.923 259.400 C 151.127 259.730,164.076 260.000,179.697 260.000 L 208.100 260.000 207.850 268.763 C 207.712 273.583,207.883 277.242,208.229 276.894 C 208.576 276.546,208.756 272.512,208.629 267.931 L 208.400 259.600 179.476 259.200 C 163.567 258.980,150.719 259.070,150.923 259.400 M306.958 259.709 C 306.201 260.465,306.243 316.800,307.000 316.800 C 307.330 316.800,307.600 304.110,307.600 288.600 L 307.600 260.400 316.190 260.173 L 324.780 259.946 325.005 288.173 L 325.230 316.400 325.215 288.000 L 325.200 259.600 316.358 259.375 C 311.495 259.252,307.265 259.402,306.958 259.709 M130.800 307.600 C 130.800 324.016,131.070 337.280,131.400 337.076 C 131.730 336.872,132.000 323.608,132.000 307.600 C 132.000 291.592,131.730 278.328,131.400 278.124 C 131.070 277.920,130.800 291.184,130.800 307.600 M149.774 308.153 C 149.678 323.857,149.870 336.873,150.200 337.077 C 150.746 337.416,150.732 314.821,150.171 289.600 C 150.048 284.100,149.869 292.449,149.774 308.153 M47.852 298.199 C 55.911 298.330,68.871 298.329,76.652 298.199 C 84.433 298.068,77.840 297.961,62.000 297.961 C 46.160 297.961,39.793 298.068,47.852 298.199 M200.000 298.353 L 207.600 298.800 208.042 307.600 L 208.484 316.400 208.642 307.960 C 208.839 297.449,208.933 297.557,199.640 297.753 L 192.400 297.906 200.000 298.353 M91.505 307.600 C 91.507 312.880,91.636 314.936,91.793 312.169 C 91.950 309.401,91.949 305.081,91.790 302.569 C 91.632 300.056,91.504 302.320,91.505 307.600 M190.133 298.933 C 189.396 299.671,189.458 315.817,190.200 316.279 C 190.530 316.484,190.686 312.851,190.546 308.206 C 190.356 301.869,190.555 299.594,191.346 299.093 C 191.928 298.724,192.011 298.419,191.533 298.412 C 191.057 298.406,190.427 298.640,190.133 298.933 " stroke="none" fill="#878787" fill-rule="evenodd"></path><path id="path4" d="M287.585 200.592 L 305.572 200.830 305.786 220.215 L 306.000 239.600 335.000 239.810 L 364.000 240.020 364.000 288.404 L 364.000 336.787 316.600 337.003 L 269.200 337.219 316.800 337.210 L 364.400 337.200 364.400 288.400 L 364.400 239.600 335.600 239.200 L 306.800 238.800 306.400 219.600 L 306.000 200.400 287.800 200.377 L 269.599 200.354 287.585 200.592 M267.200 268.800 C 267.200 313.600,267.473 336.800,268.000 336.800 C 268.527 336.800,268.800 313.600,268.800 268.800 C 268.800 224.000,268.527 200.800,268.000 200.800 C 267.473 200.800,267.200 224.000,267.200 268.800 M33.967 240.198 C 33.754 240.754,33.679 253.986,33.800 269.604 L 34.021 298.000 34.211 269.000 L 34.400 240.000 82.400 240.000 L 130.400 240.000 130.400 248.800 L 130.400 257.600 102.457 257.600 C 69.213 257.600,72.000 256.638,72.000 268.110 C 72.000 280.363,68.851 279.200,102.028 279.200 L 130.400 279.200 130.400 308.000 L 130.400 336.800 82.400 336.800 L 34.400 336.800 34.400 327.210 L 34.400 317.620 63.400 317.410 L 92.400 317.200 92.400 307.667 C 92.400 300.582,92.138 298.080,91.380 297.927 C 90.819 297.813,90.729 297.903,91.180 298.127 C 91.668 298.369,92.000 302.224,92.000 307.657 L 92.000 316.780 63.000 316.990 L 34.000 317.200 34.000 327.200 L 34.000 337.200 82.400 337.200 L 130.800 337.200 130.800 307.600 L 130.800 278.000 102.000 277.600 L 73.200 277.200 72.965 270.000 C 72.835 266.040,72.931 261.995,73.177 261.010 L 73.625 259.220 102.213 259.010 L 130.800 258.800 130.800 249.200 L 130.800 239.600 82.577 239.394 C 44.320 239.230,34.274 239.396,33.967 240.198 M150.575 248.994 L 150.800 258.800 179.801 259.200 C 198.956 259.464,208.710 259.328,208.534 258.800 C 208.365 258.292,197.856 257.923,179.734 257.790 L 151.200 257.580 151.200 248.790 L 151.200 240.000 199.200 240.000 L 247.200 240.000 247.200 288.400 L 247.200 336.800 199.200 336.800 L 151.200 336.800 151.200 308.010 L 151.200 279.220 179.734 279.010 C 197.856 278.877,208.365 278.508,208.534 278.000 C 208.710 277.472,198.956 277.336,179.801 277.600 L 150.800 278.000 150.800 307.600 L 150.800 337.200 199.200 337.200 L 247.600 337.200 247.600 288.400 L 247.600 239.600 198.975 239.394 L 150.351 239.188 150.575 248.994 M306.941 258.600 C 305.692 259.515,305.595 262.035,305.789 288.400 L 306.000 317.200 315.487 317.426 C 321.797 317.577,325.346 317.343,326.087 316.728 C 327.841 315.272,327.718 261.896,325.955 259.378 C 324.477 257.269,309.589 256.659,306.941 258.600 M325.410 288.200 L 325.620 316.800 316.010 316.800 L 306.400 316.800 306.400 288.533 C 306.400 272.987,306.651 260.016,306.958 259.709 C 307.265 259.402,311.495 259.252,316.358 259.375 L 325.200 259.600 325.410 288.200 M209.088 268.800 C 209.088 272.980,209.223 274.690,209.388 272.600 C 209.553 270.510,209.553 267.090,209.388 265.000 C 209.223 262.910,209.088 264.620,209.088 268.800 M189.146 298.651 C 188.924 299.230,188.846 303.640,188.971 308.451 L 189.200 317.200 198.736 317.427 C 210.112 317.697,209.623 318.127,209.433 308.000 L 209.290 300.400 208.845 308.400 L 208.400 316.400 199.200 316.400 L 190.000 316.400 189.773 307.784 C 189.553 299.459,189.607 299.144,191.373 298.435 L 193.200 297.701 191.375 297.651 C 190.371 297.623,189.368 298.073,189.146 298.651 " stroke="none" fill="#bfbfbf" fill-rule="evenodd"></path><path id="path5" d="M268.800 268.800 L 268.800 336.800 316.400 336.800 L 364.000 336.800 364.000 288.410 L 364.000 240.020 335.000 239.810 L 306.000 239.600 305.786 220.200 L 305.572 200.800 287.186 200.800 L 268.800 200.800 268.800 268.800 M34.400 268.790 L 34.400 297.580 63.400 297.790 L 92.400 298.000 92.400 307.600 L 92.400 317.200 63.400 317.410 L 34.400 317.620 34.400 327.210 L 34.400 336.800 82.400 336.800 L 130.400 336.800 130.400 308.000 L 130.400 279.200 102.028 279.200 C 68.851 279.200,72.000 280.363,72.000 268.110 C 72.000 256.638,69.213 257.600,102.457 257.600 L 130.400 257.600 130.400 248.800 L 130.400 240.000 82.400 240.000 L 34.400 240.000 34.400 268.790 M151.200 248.800 L 151.200 257.600 179.553 257.600 C 201.369 257.600,208.049 257.831,208.529 258.600 C 209.539 260.221,209.822 274.596,208.891 277.000 L 208.040 279.200 179.620 279.200 L 151.200 279.200 151.200 308.000 L 151.200 336.800 199.200 336.800 L 247.200 336.800 247.200 288.400 L 247.200 240.000 199.200 240.000 L 151.200 240.000 151.200 248.800 M325.955 259.378 C 327.718 261.896,327.841 315.272,326.087 316.728 C 325.346 317.343,321.797 317.577,315.487 317.426 L 306.000 317.200 305.789 288.400 C 305.540 254.503,304.462 257.600,316.508 257.600 C 324.076 257.600,324.805 257.737,325.955 259.378 M209.100 300.100 C 209.818 303.692,209.694 315.414,208.924 316.627 C 208.440 317.390,205.828 317.595,198.736 317.427 L 189.200 317.200 188.971 308.451 C 188.666 296.742,187.867 297.600,199.075 297.600 L 208.600 297.600 209.100 300.100 " stroke="none" fill="#ffffff" fill-rule="evenodd"></path><path id="path6" d="M80.104 15.475 C 79.457 16.255,79.151 40.581,79.004 102.878 L 78.800 189.200 47.666 189.600 C 20.924 189.944,16.481 190.169,16.166 191.200 C 15.871 192.168,16.005 192.207,16.860 191.400 C 17.669 190.636,25.047 190.400,48.062 190.400 C 72.358 190.400,78.378 190.191,79.098 189.322 C 79.743 188.546,80.050 164.094,80.196 101.922 L 80.400 15.600 199.800 15.397 L 319.200 15.195 319.200 102.312 C 319.200 181.013,319.322 189.476,320.465 189.914 C 321.161 190.181,335.381 190.400,352.065 190.400 C 385.171 190.400,384.389 190.272,379.843 194.962 C 376.706 198.198,377.195 198.418,380.656 195.329 C 382.055 194.079,383.200 192.279,383.200 191.329 L 383.200 189.600 352.600 189.588 C 335.770 189.581,321.552 189.291,321.004 188.943 C 320.220 188.445,319.964 169.741,319.804 101.555 L 319.600 14.800 200.300 14.597 C 100.926 14.429,80.851 14.575,80.104 15.475 M261.153 186.859 C 260.299 187.552,260.109 187.855,260.730 187.532 C 261.352 187.209,262.972 186.679,264.330 186.354 C 266.601 185.811,266.635 185.757,264.753 185.682 C 263.627 185.637,262.007 186.167,261.153 186.859 M311.092 186.831 C 312.572 187.474,314.012 187.987,314.292 187.972 C 315.333 187.914,310.753 185.657,309.600 185.660 C 308.940 185.661,309.611 186.189,311.092 186.831 M316.547 189.664 C 317.508 190.729,318.855 192.680,319.542 194.000 C 320.228 195.320,320.792 195.991,320.795 195.491 C 320.804 193.798,318.567 190.267,316.679 188.995 L 314.800 187.729 316.547 189.664 M20.833 197.229 C 23.235 199.886,25.363 201.943,25.562 201.800 C 25.762 201.658,23.797 199.485,21.195 196.971 L 16.466 192.400 20.833 197.229 M320.977 210.440 C 320.754 226.081,319.294 224.800,337.347 224.800 L 351.975 224.800 354.587 222.309 L 357.200 219.818 354.539 221.909 C 351.402 224.373,324.430 225.246,322.520 222.945 C 321.999 222.317,321.545 217.053,321.399 209.945 L 321.154 198.000 320.977 210.440 M370.542 205.102 C 366.944 208.788,364.000 212.100,364.000 212.462 C 364.000 212.824,364.286 212.778,364.636 212.360 C 364.986 211.942,368.109 208.630,371.575 205.000 C 375.041 201.370,377.699 198.400,377.481 198.400 C 377.262 198.400,374.140 201.416,370.542 205.102 M252.324 211.600 C 252.325 218.640,252.447 221.413,252.596 217.762 C 252.744 214.111,252.744 208.351,252.594 204.962 C 252.444 201.573,252.323 204.560,252.324 211.600 M41.200 218.193 L 47.600 224.730 92.400 224.965 C 117.040 225.094,135.580 224.957,133.600 224.659 C 131.620 224.362,111.509 224.092,88.908 224.059 L 47.816 224.000 41.308 217.828 L 34.800 211.656 41.200 218.193 M148.000 224.705 C 146.460 224.977,169.216 225.200,198.569 225.200 C 227.921 225.200,251.321 224.955,250.569 224.656 C 248.865 223.980,151.845 224.026,148.000 224.705 M138.298 226.671 C 139.654 228.313,141.606 228.369,143.647 226.825 C 145.542 225.392,144.592 225.216,142.389 226.592 C 141.106 227.394,140.453 227.369,139.000 226.464 C 137.352 225.438,137.293 225.455,138.298 226.671 M185.800 351.799 C 193.610 351.930,206.390 351.930,214.200 351.799 C 222.010 351.668,215.620 351.561,200.000 351.561 C 184.380 351.561,177.990 351.668,185.800 351.799 M170.000 352.801 C 169.727 353.241,172.226 356.458,175.552 359.950 C 178.879 363.442,181.600 365.989,181.600 365.610 C 181.600 365.231,179.058 362.375,175.952 359.262 C 172.845 356.150,170.527 353.242,170.799 352.801 C 171.072 352.361,171.114 352.000,170.894 352.000 C 170.674 352.000,170.272 352.360,170.000 352.801 M228.986 352.391 C 229.308 352.747,224.770 358.115,218.900 364.319 C 213.030 370.524,206.640 377.310,204.699 379.400 C 202.757 381.490,200.649 383.200,200.012 383.200 C 199.376 383.200,197.043 381.490,194.827 379.400 L 190.800 375.600 194.770 379.800 C 199.745 385.063,200.411 385.038,205.589 379.400 C 210.126 374.460,219.246 364.785,226.239 357.496 C 229.449 354.150,230.282 352.832,229.480 352.368 C 228.886 352.025,228.664 352.035,228.986 352.391 M188.000 372.800 C 189.350 374.120,190.690 375.200,190.977 375.200 C 191.264 375.200,190.465 374.120,189.200 372.800 C 187.935 371.480,186.596 370.400,186.223 370.400 C 185.850 370.400,186.650 371.480,188.000 372.800 " stroke="none" fill="#573d00" fill-rule="evenodd"></path><path id="path7" d="M80.533 15.733 C 80.240 16.027,80.000 55.015,80.000 102.373 C 80.000 168.279,79.775 188.705,79.040 189.440 C 78.327 190.153,70.304 190.400,47.887 190.400 C 13.476 190.400,14.495 190.159,21.288 196.689 L 25.981 201.200 21.770 196.754 C 19.454 194.309,17.808 192.059,18.113 191.754 C 18.417 191.449,32.243 191.200,48.835 191.200 C 73.036 191.200,79.180 190.988,79.891 190.131 C 80.566 189.317,81.803 15.199,81.133 15.200 C 81.097 15.200,80.827 15.440,80.533 15.733 M275.800 185.398 C 282.070 185.533,292.330 185.533,298.600 185.398 C 304.870 185.263,299.740 185.152,287.200 185.152 C 274.660 185.152,269.530 185.263,275.800 185.398 M259.200 187.271 C 257.872 188.358,257.737 188.630,258.800 188.080 C 261.409 186.732,262.856 185.624,262.000 185.630 C 261.560 185.633,260.300 186.372,259.200 187.271 M311.267 185.855 C 312.538 186.830,317.600 189.472,317.600 189.161 C 317.600 188.626,312.565 185.607,311.667 185.603 C 311.263 185.601,311.083 185.715,311.267 185.855 M318.493 187.748 C 318.358 190.291,320.147 194.441,320.585 192.600 C 321.007 190.823,379.679 190.399,381.440 192.160 C 382.187 192.907,382.400 192.818,382.400 191.760 C 382.400 190.504,380.062 190.399,351.800 190.388 C 320.357 190.375,319.664 190.316,318.985 187.600 C 318.614 186.112,318.579 186.122,318.493 187.748 M370.781 204.200 L 364.400 210.800 371.000 204.419 C 374.630 200.909,377.600 197.939,377.600 197.819 C 377.600 197.235,376.708 198.070,370.781 204.200 M321.767 210.440 C 321.555 225.182,320.174 224.040,337.960 223.827 L 352.400 223.655 337.600 223.227 L 322.800 222.800 322.367 210.800 L 321.935 198.800 321.767 210.440 M36.400 212.800 C 38.119 214.560,39.705 216.000,39.925 216.000 C 40.145 216.000,38.919 214.560,37.200 212.800 C 35.481 211.040,33.895 209.600,33.675 209.600 C 33.455 209.600,34.681 211.040,36.400 212.800 M359.177 216.600 L 354.000 222.000 359.400 216.823 C 362.370 213.976,364.800 211.546,364.800 211.423 C 364.800 210.834,363.985 211.584,359.177 216.600 M40.800 217.050 C 40.800 217.188,41.970 218.358,43.400 219.650 L 46.000 222.000 43.650 219.400 C 41.460 216.976,40.800 216.432,40.800 217.050 M55.600 223.762 C 73.684 224.269,134.373 224.362,132.655 223.880 C 131.635 223.594,112.080 223.400,89.200 223.448 C 66.320 223.497,51.200 223.638,55.600 223.762 M175.400 223.800 C 188.930 223.923,211.070 223.923,224.600 223.800 C 238.130 223.677,227.060 223.576,200.000 223.576 C 172.940 223.576,161.870 223.677,175.400 223.800 M138.047 225.975 C 139.785 227.289,142.086 227.555,142.729 226.516 C 142.961 226.139,142.305 225.993,141.270 226.191 C 140.234 226.389,139.144 226.157,138.847 225.675 C 138.549 225.194,137.898 224.800,137.400 224.800 C 136.902 224.800,137.193 225.329,138.047 225.975 M170.921 352.600 C 170.715 352.930,173.484 353.103,177.074 352.985 C 188.288 352.614,189.557 352.274,180.247 352.134 C 175.323 352.061,171.126 352.270,170.921 352.600 M219.950 352.599 L 229.099 352.855 223.950 358.228 L 218.800 363.600 224.161 358.461 C 230.810 352.089,230.721 351.962,219.753 352.171 L 210.800 352.342 219.950 352.599 M213.179 369.800 L 207.600 375.600 213.400 370.021 C 218.787 364.840,219.565 364.000,218.979 364.000 C 218.857 364.000,216.247 366.610,213.179 369.800 M194.367 378.600 C 196.328 380.690,198.038 382.400,198.167 382.400 C 198.767 382.400,198.132 381.682,194.600 378.367 L 190.800 374.800 194.367 378.600 " stroke="none" fill="#875f00" fill-rule="evenodd"></path><path id="path8" d="M81.286 16.465 C 81.019 17.161,80.800 56.329,80.800 103.505 C 80.800 169.152,80.575 189.505,79.840 190.240 C 79.127 190.953,71.104 191.200,48.687 191.200 C 32.081 191.200,18.325 191.475,18.117 191.810 C 17.765 192.381,25.711 201.054,40.200 215.913 C 43.610 219.410,46.400 221.950,46.400 221.558 C 46.400 221.165,43.116 217.504,39.102 213.422 C 30.259 204.429,20.000 193.202,20.000 192.518 C 20.000 192.243,33.770 191.925,50.600 191.810 L 81.200 191.600 81.404 104.200 L 81.607 16.800 200.004 16.800 C 278.401 16.800,318.400 16.530,318.400 16.000 C 318.400 14.476,81.871 14.940,81.286 16.465 M318.596 101.753 C 318.395 188.652,318.385 188.883,315.287 186.078 C 314.510 185.375,312.822 184.816,311.537 184.835 C 309.286 184.869,309.312 184.910,312.253 185.959 C 313.932 186.558,315.975 187.654,316.793 188.394 C 319.215 190.585,319.279 188.041,319.028 100.000 L 318.792 17.200 318.596 101.753 M266.400 184.000 C 266.400 184.513,273.867 184.800,287.200 184.800 C 300.533 184.800,308.000 184.513,308.000 184.000 C 308.000 183.487,300.533 183.200,287.200 183.200 C 273.867 183.200,266.400 183.487,266.400 184.000 M259.035 186.307 C 257.090 187.555,253.600 191.332,253.600 192.189 C 253.600 192.374,255.199 190.993,257.154 189.120 C 259.109 187.248,261.719 185.563,262.954 185.377 C 264.998 185.070,265.021 185.034,263.200 184.978 C 262.100 184.945,260.226 185.542,259.035 186.307 M320.893 193.000 C 320.963 194.355,321.076 194.454,321.351 193.400 C 321.715 192.010,380.000 191.083,380.000 192.467 C 380.000 192.723,378.740 194.157,377.200 195.653 C 375.660 197.148,374.400 198.483,374.400 198.620 C 374.400 198.756,369.729 203.712,364.019 209.634 C 358.310 215.555,353.630 220.830,353.619 221.356 C 353.603 222.166,358.250 217.403,378.987 195.355 C 382.891 191.204,382.864 191.200,350.753 191.200 L 320.800 191.200 320.893 193.000 M251.704 195.400 C 251.439 196.390,251.217 202.960,251.211 210.000 L 251.200 222.800 199.000 222.800 C 151.074 222.800,146.547 222.914,143.715 224.195 C 142.018 224.962,140.218 225.325,139.715 225.001 C 135.955 222.584,132.691 222.426,90.000 222.592 L 46.800 222.760 90.000 223.216 C 131.128 223.649,134.927 223.846,138.882 225.739 C 140.126 226.334,141.583 226.161,144.482 225.072 C 148.118 223.706,152.110 223.587,200.000 223.420 L 251.600 223.240 252.000 209.420 C 252.220 201.819,252.691 195.150,253.047 194.600 C 253.403 194.050,253.355 193.600,252.941 193.600 C 252.526 193.600,251.970 194.410,251.704 195.400 M322.244 208.676 C 322.378 215.564,322.637 221.650,322.819 222.200 C 323.071 222.961,326.734 223.157,338.175 223.019 L 353.200 222.838 338.200 222.601 L 323.200 222.365 323.200 209.630 C 323.200 202.625,322.930 196.728,322.600 196.524 C 322.270 196.320,322.110 201.788,322.244 208.676 M194.200 352.594 C 197.390 352.746,202.610 352.746,205.800 352.594 C 208.990 352.442,206.380 352.318,200.000 352.318 C 193.620 352.318,191.010 352.442,194.200 352.594 M171.213 353.244 C 171.206 353.708,173.090 355.901,175.400 358.117 C 180.941 363.433,197.927 381.515,198.267 382.460 C 198.866 384.123,200.827 382.956,204.907 378.511 C 207.273 375.932,213.659 369.092,219.096 363.311 C 224.533 357.530,228.768 352.800,228.506 352.800 C 228.021 352.800,218.400 362.157,218.400 362.629 C 218.400 363.274,200.124 381.598,199.501 381.578 C 199.115 381.566,197.360 379.892,195.600 377.857 C 189.694 371.031,171.225 352.391,171.213 353.244 " stroke="none" fill="#b78000" fill-rule="evenodd"></path><path id="path9" d="M81.404 104.200 L 81.200 191.600 50.600 191.810 C 33.770 191.925,20.000 192.243,20.000 192.518 C 20.000 193.202,30.259 204.429,39.102 213.422 C 43.116 217.504,46.400 221.194,46.400 221.622 C 46.400 222.116,62.230 222.404,89.800 222.412 C 132.528 222.424,135.985 222.603,139.715 225.001 C 140.218 225.325,142.018 224.962,143.715 224.195 C 146.547 222.914,151.065 222.800,198.800 222.800 L 250.800 222.800 251.200 208.465 C 251.492 198.002,251.870 194.041,252.600 193.799 C 253.150 193.616,253.613 193.047,253.629 192.533 C 253.716 189.711,260.285 184.800,263.972 184.800 C 265.307 184.800,266.400 184.440,266.400 184.000 C 266.400 183.487,273.867 183.200,287.200 183.200 C 300.533 183.200,308.000 183.487,308.000 184.000 C 308.000 184.440,309.322 184.800,310.937 184.800 C 312.552 184.800,314.510 185.375,315.287 186.078 C 318.393 188.890,318.400 188.708,318.400 101.553 L 318.400 16.800 200.004 16.800 L 81.607 16.800 81.404 104.200 M321.600 193.953 C 321.600 195.027,321.960 196.128,322.400 196.400 C 322.879 196.696,323.200 202.008,323.200 209.647 L 323.200 222.400 338.400 222.400 C 350.016 222.400,353.605 222.164,353.619 221.400 C 353.630 220.850,358.310 215.555,364.019 209.634 C 369.729 203.712,374.400 198.756,374.400 198.620 C 374.400 198.483,375.660 197.148,377.200 195.653 C 378.740 194.157,380.000 192.723,380.000 192.467 C 380.000 192.210,366.860 192.000,350.800 192.000 L 321.600 192.000 321.600 193.953 M174.601 355.800 C 185.994 367.482,192.843 374.678,195.600 377.861 C 197.360 379.894,199.115 381.566,199.501 381.578 C 200.124 381.598,218.400 363.274,218.400 362.629 C 218.400 362.487,220.567 360.217,223.215 357.585 L 228.030 352.800 199.853 352.800 L 171.675 352.800 174.601 355.800 " stroke="none" fill="#ffca28" fill-rule="evenodd"></path></g></svg>